<svg width="34" height="34" viewBox="0 0 34 34" fill="none" xmlns="http://www.w3.org/2000/svg">
<path d="M31.9703 16.1745L28.6875 17.8159L24.4375 9.67691L27.7537 8.01879C28.0029 7.89421 28.291 7.87247 28.556 7.95823C28.821 8.04399 29.0418 8.2304 29.1707 8.47732L32.437 14.7324C32.5023 14.8575 32.542 14.9943 32.5539 15.1349C32.5657 15.2755 32.5495 15.4171 32.506 15.5513C32.4626 15.6856 32.3928 15.8098 32.3009 15.9168C32.2089 16.0238 32.0965 16.1114 31.9703 16.1745V16.1745Z" stroke="black" stroke-width="2" stroke-linecap="round" stroke-linejoin="round"/>
<path d="M5.3125 17.6736L2.02969 16.0322C1.90348 15.9691 1.79111 15.8815 1.69913 15.7745C1.60715 15.6675 1.5374 15.5432 1.49396 15.409C1.45052 15.2747 1.43425 15.1332 1.44611 14.9926C1.45797 14.852 1.49771 14.7151 1.56302 14.5901L4.82927 8.33499C4.95821 8.08807 5.17895 7.90166 5.44398 7.81589C5.70901 7.73013 5.99711 7.75188 6.24626 7.87645L9.5625 9.53457L5.3125 17.6736Z" stroke="black" stroke-width="2" stroke-linecap="round" stroke-linejoin="round"/>
<path d="M28.6875 17.8159L26.5625 20.3019L21.6754 25.189C21.5456 25.3188 21.3845 25.4127 21.2077 25.4617C21.0309 25.5107 20.8444 25.513 20.6664 25.4685L12.969 23.5442C12.8246 23.5081 12.6894 23.442 12.5722 23.3504L5.3125 17.6736" stroke="black" stroke-width="2" stroke-linecap="round" stroke-linejoin="round"/>
<path d="M26.5625 20.3019L20.7187 16.0519L19.0187 17.3269C18.2831 17.8787 17.3883 18.1769 16.4687 18.1769C15.5492 18.1769 14.6544 17.8787 13.9188 17.3269L13.1988 16.787C13.077 16.6956 12.9763 16.5792 12.9034 16.4456C12.8306 16.3119 12.7873 16.1641 12.7765 16.0123C12.7657 15.8605 12.7877 15.7081 12.8409 15.5655C12.8941 15.4228 12.9774 15.2933 13.085 15.1857L18.2825 9.98814C18.3812 9.88948 18.4983 9.81121 18.6273 9.75782C18.7562 9.70442 18.8943 9.67694 19.0339 9.67694H24.4375" stroke="black" stroke-width="2" stroke-linecap="round" stroke-linejoin="round"/>
<path d="M9.63878 9.53455L16.4547 7.54747C16.6982 7.47649 16.959 7.49494 17.1901 7.59949L21.7812 9.6769" stroke="black" stroke-width="2" stroke-linecap="round" stroke-linejoin="round"/>
<path d="M14.875 28.2707L10.8721 27.27C10.7097 27.2293 10.5591 27.1509 10.4328 27.0411L7.4375 24.4375" stroke="black" stroke-width="2" stroke-linecap="round" stroke-linejoin="round"/>
</svg>
