<svg width="228" height="197" viewBox="0 0 228 197" fill="none" xmlns="http://www.w3.org/2000/svg">
<circle cx="86.0596" cy="110.562" r="63" transform="rotate(-30 86.0596 110.562)" fill="url(#paint0_radial_3571_12003)"/>
<circle cx="86.0596" cy="110.562" r="53" transform="rotate(-30 86.0596 110.562)" stroke="white" stroke-opacity="0.1" stroke-width="5" stroke-linecap="round" stroke-linejoin="round" stroke-dasharray="10 10"/>
<path fill-rule="evenodd" clip-rule="evenodd" d="M67.7404 78.8326C58.0491 84.4279 51.9891 93.9457 50.3705 104.339C50.1635 105.668 49.736 106.727 49.2029 107.571C47.5805 110.138 44.5381 108.052 44.8931 105.036C46.3654 92.528 53.4244 80.9068 65.0596 74.1892C76.6948 67.4716 90.2885 67.169 101.857 72.1479C104.646 73.3485 104.932 77.0263 101.897 77.1477C100.9 77.1876 99.7688 77.0281 98.5147 76.543C88.7045 72.7481 77.4318 73.2373 67.7404 78.8326ZM73.6045 144.582C83.4147 148.376 94.6873 147.887 104.379 142.292C114.07 136.697 120.13 127.179 121.749 116.786C121.956 115.457 122.383 114.397 122.916 113.554C124.539 110.987 127.581 113.072 127.226 116.089C125.754 128.597 118.695 140.218 107.06 146.935C95.4244 153.653 81.8307 153.956 70.2622 148.977C67.4727 147.776 67.1875 144.098 70.222 143.977C71.219 143.937 72.3504 144.096 73.6045 144.582Z" fill="white" fill-opacity="0.2"/>
<path d="M70.1397 137.074C66.4217 139.221 62.6229 139.787 58.7433 138.773C54.874 137.722 51.855 135.318 49.6865 131.562C47.518 127.806 46.9527 124.002 47.9906 120.149C49.0386 116.259 51.4217 113.24 55.1397 111.093C57.1067 109.958 59.1507 109.288 61.2718 109.084C63.3929 108.88 65.4246 109.159 67.3669 109.919C68.3911 110.308 69.3532 110.815 70.2534 111.44C71.5515 112.341 71.2728 114.219 69.9042 115.009V115.009C69.0057 115.528 67.8945 115.396 66.9998 114.871C65.8121 114.174 64.5327 113.779 63.1616 113.687C61.2178 113.533 59.3104 113.996 57.4394 115.077C54.9207 116.531 53.3242 118.585 52.6497 121.239C51.9753 123.893 52.3977 126.536 53.917 129.168C55.4226 131.775 57.4932 133.451 60.129 134.194C62.751 134.913 65.3213 134.545 67.84 133.091C69.759 131.983 71.136 130.518 71.9712 128.696C72.5542 127.386 72.8118 126.014 72.7439 124.582C72.6931 123.508 73.1315 122.428 74.0621 121.891V121.891C75.4207 121.107 77.1756 121.786 77.3554 123.344C77.6152 125.597 77.3325 127.784 76.5071 129.905C75.3085 132.926 73.1861 135.315 70.1397 137.074Z" fill="url(#paint1_linear_3571_12003)"/>
<path d="M90.279 120.583L97.4236 116.458C98.431 115.876 99.7191 116.221 100.301 117.229L100.76 118.025C101.088 118.592 100.894 119.318 100.326 119.646L88.5768 126.429C86.6403 127.548 84.3772 125.602 85.1917 123.52V123.52C86.0628 119.549 86.6849 116.488 87.058 114.336C87.5583 111.472 87.7845 109.386 87.7368 108.078C87.689 106.771 87.3829 105.628 86.8185 104.65C86.4193 103.959 85.9116 103.441 85.2953 103.098C84.7031 102.74 84.0472 102.579 83.3275 102.613C82.6181 102.609 81.9018 102.816 81.1785 103.233C80.0454 103.888 79.322 104.75 79.0083 105.822C78.8458 106.375 78.8347 106.899 78.9239 107.405C79.1403 108.631 78.8972 109.987 77.8187 110.609V110.609C76.7401 111.232 75.326 110.873 74.8957 109.704C74.3223 108.147 74.1412 106.516 74.6595 104.804C75.2869 102.661 76.7458 100.928 79.0362 99.6062C81.2783 98.3116 83.484 97.9283 85.6532 98.4562C87.8466 98.9702 89.5489 100.276 90.7603 102.375C91.3936 103.471 91.8012 104.651 91.9833 105.913C92.1895 107.161 92.1579 108.943 91.8886 111.261C91.6295 113.54 91.093 116.647 90.279 120.583Z" fill="url(#paint2_linear_3571_12003)"/>
<path d="M117.324 109.832C113.735 111.905 110.043 112.409 106.248 111.347C102.463 110.246 99.4864 107.818 97.3179 104.062C95.1494 100.306 94.5419 96.5263 95.4954 92.7222C96.4583 88.8808 98.7346 85.9239 102.324 83.8513C104.224 82.7548 106.205 82.1213 108.268 81.9509C110.331 81.7804 112.314 82.0867 114.218 82.8697C115.257 83.2848 116.233 83.8244 117.147 84.4884C118.376 85.382 118.1 87.1836 116.784 87.9434V87.9434C115.907 88.4494 114.822 88.3161 113.959 87.7882C112.784 87.0701 111.524 86.6548 110.178 86.5421C108.282 86.3607 106.431 86.7915 104.624 87.8345C102.192 89.2385 100.668 91.2511 100.05 93.8723C99.4329 96.4935 99.8839 99.1199 101.403 101.751C102.909 104.359 104.951 106.051 107.53 106.827C110.095 107.579 112.593 107.253 115.025 105.849C116.878 104.779 118.197 103.347 118.983 101.554C119.536 100.253 119.766 98.886 119.673 97.4522C119.605 96.4074 120.029 95.3521 120.936 94.8285V94.8285C122.242 94.0741 123.93 94.7191 124.133 96.2141C124.443 98.4921 124.206 100.694 123.42 102.82C122.298 105.796 120.266 108.134 117.324 109.832Z" fill="url(#paint3_linear_3571_12003)"/>
<circle cx="150.033" cy="77.1589" r="63" transform="rotate(15 150.033 77.1589)" fill="url(#paint4_radial_3571_12003)"/>
<circle cx="150.033" cy="77.1589" r="53" transform="rotate(15 150.033 77.1589)" stroke="white" stroke-opacity="0.1" stroke-width="5" stroke-linecap="round" stroke-linejoin="round" stroke-dasharray="10 10"/>
<path fill-rule="evenodd" clip-rule="evenodd" d="M159.516 41.7691C148.706 38.8727 137.691 41.3178 129.197 47.5224C128.112 48.3156 127.06 48.7625 126.087 48.982C123.124 49.6501 122.448 46.0238 124.831 44.1422C134.717 36.3388 147.926 33.1128 160.903 36.5901C173.881 40.0673 183.707 49.4656 188.366 61.1663C189.49 63.9877 187.091 66.79 184.859 64.7302C184.126 64.0534 183.439 63.1406 182.895 61.9107C178.642 52.2905 170.325 44.6654 159.516 41.7691ZM117.171 92.4072C121.424 102.027 129.741 109.652 140.55 112.549C151.36 115.445 162.375 113 170.868 106.795C171.954 106.002 173.006 105.555 173.979 105.336C176.942 104.668 177.618 108.294 175.234 110.176C165.349 117.979 152.14 121.205 139.162 117.728C126.185 114.251 116.359 104.852 111.699 93.1516C110.576 90.3302 112.975 87.5279 115.206 89.5878C115.94 90.2645 116.627 91.1773 117.171 92.4072Z" fill="white" fill-opacity="0.2"/>
<path d="M120.029 84.6486C115.882 83.5375 112.795 81.2518 110.769 77.7918C108.777 74.3122 108.342 70.4778 109.464 66.2886C110.587 62.0993 112.877 59.0095 116.335 57.019C119.827 55.0091 123.647 54.5597 127.794 55.6708C129.988 56.2587 131.906 57.2304 133.55 58.5861C135.195 59.9418 136.434 61.5752 137.27 63.4865C137.719 64.4857 138.041 65.5245 138.236 66.6029C138.516 68.1582 136.991 69.2889 135.465 68.8798V68.8798C134.463 68.6113 133.77 67.7323 133.509 66.7283C133.162 65.3955 132.537 64.2117 131.632 63.177C130.366 61.6939 128.69 60.6727 126.603 60.1136C123.794 59.3608 121.213 59.6844 118.859 61.0842C116.505 62.4841 114.935 64.6516 114.149 67.5867C113.369 70.4952 113.649 73.144 114.987 75.5331C116.333 77.8956 118.41 79.4532 121.22 80.2059C123.36 80.7794 125.369 80.7173 127.248 80.0196C128.587 79.5053 129.739 78.7177 130.704 77.6566C131.427 76.8616 132.501 76.4079 133.539 76.686V76.686C135.054 77.092 135.815 78.8131 134.84 80.0422C133.431 81.8191 131.684 83.1656 129.601 84.0818C126.617 85.3701 123.427 85.5591 120.029 84.6486Z" fill="url(#paint5_linear_3571_12003)"/>
<path d="M145.931 87.228L153.9 89.3633C155.023 89.6643 155.69 90.8192 155.389 91.9428L155.151 92.8308C154.981 93.464 154.331 93.8397 153.698 93.6701L140.593 90.1587C138.433 89.58 138.208 86.6042 140.257 85.7076V85.7076C143.68 83.5161 146.285 81.7912 148.071 80.5331C150.45 78.8617 152.084 77.5468 152.975 76.5884C153.866 75.63 154.458 74.6056 154.75 73.5152C154.957 72.744 154.963 72.019 154.771 71.3403C154.605 70.6688 154.255 70.0906 153.722 69.6058C153.223 69.1015 152.571 68.7413 151.764 68.5252C150.5 68.1865 149.378 68.285 148.399 68.8207C147.893 69.0972 147.514 69.4601 147.22 69.8806C146.506 70.9009 145.375 71.6874 144.172 71.3651V71.3651C142.969 71.0428 142.223 69.7888 142.746 68.6582C143.441 67.1517 144.467 65.8702 146.044 65.0258C148.003 63.9544 150.259 63.761 152.814 64.4455C155.315 65.1156 157.145 66.4042 158.306 68.3114C159.493 70.2257 159.774 72.353 159.146 74.6933C158.819 75.9166 158.273 77.0388 157.509 78.0598C156.773 79.0881 155.49 80.3263 153.661 81.7744C151.866 83.2031 149.289 85.021 145.931 87.228Z" fill="url(#paint6_linear_3571_12003)"/>
<path d="M172.657 98.7501C168.653 97.6773 165.685 95.4235 163.754 91.9889C161.855 88.5346 161.467 84.7128 162.59 80.5236C163.712 76.3343 165.956 73.2319 169.32 71.2162C172.717 69.1808 176.417 68.6995 180.421 69.7723C182.54 70.3399 184.388 71.2929 185.968 72.6313C187.547 73.9696 188.733 75.5886 189.525 77.4882C189.967 78.5165 190.275 79.5883 190.452 80.7036C190.689 82.2046 189.22 83.2834 187.752 82.8901V82.8901C186.775 82.6282 186.101 81.7666 185.864 80.7828C185.542 79.4447 184.944 78.2597 184.072 77.2281C182.859 75.7593 181.246 74.755 179.231 74.2151C176.519 73.4883 174.017 73.8334 171.727 75.2503C169.437 76.6672 167.899 78.8432 167.113 81.7783C166.333 84.6868 166.581 87.327 167.856 89.6991C169.138 92.0445 171.135 93.5806 173.847 94.3074C175.914 94.8611 177.859 94.7818 179.684 94.0695C180.994 93.5408 182.123 92.7365 183.071 91.6567C183.762 90.8698 184.808 90.4235 185.819 90.6945V90.6945C187.277 91.085 188.014 92.7345 187.101 93.9355C185.709 95.7654 183.984 97.1543 181.925 98.1021C179.027 99.4131 175.937 99.6292 172.657 98.7501Z" fill="url(#paint7_linear_3571_12003)"/>
<defs>
<radialGradient id="paint0_radial_3571_12003" cx="0" cy="0" r="1" gradientUnits="userSpaceOnUse" gradientTransform="translate(110.81 85.2498) rotate(125.261) scale(108.155)">
<stop stop-color="#2D2D2D"/>
<stop offset="1"/>
</radialGradient>
<linearGradient id="paint1_linear_3571_12003" x1="54.7439" y1="111.322" x2="69.7439" y2="137.303" gradientUnits="userSpaceOnUse">
<stop stop-color="#FFC52F"/>
<stop offset="1" stop-color="#F5A200"/>
</linearGradient>
<linearGradient id="paint2_linear_3571_12003" x1="79.1266" y1="99.554" x2="93.1266" y2="123.803" gradientUnits="userSpaceOnUse">
<stop stop-color="#FFC52F"/>
<stop offset="1" stop-color="#F5A200"/>
</linearGradient>
<linearGradient id="paint3_linear_3571_12003" x1="101.942" y1="84.0719" x2="116.942" y2="110.053" gradientUnits="userSpaceOnUse">
<stop stop-color="#FFC52F"/>
<stop offset="1" stop-color="#F5A200"/>
</linearGradient>
<radialGradient id="paint4_radial_3571_12003" cx="0" cy="0" r="1" gradientUnits="userSpaceOnUse" gradientTransform="translate(174.783 51.8464) rotate(125.261) scale(108.155)">
<stop stop-color="#2D2D2D"/>
<stop offset="1"/>
</radialGradient>
<linearGradient id="paint5_linear_3571_12003" x1="127.352" y1="55.5526" x2="119.588" y2="84.5303" gradientUnits="userSpaceOnUse">
<stop stop-color="#FFC52F"/>
<stop offset="1" stop-color="#F5A200"/>
</linearGradient>
<linearGradient id="paint6_linear_3571_12003" x1="152.915" y1="64.4725" x2="145.668" y2="91.5185" gradientUnits="userSpaceOnUse">
<stop stop-color="#FFC52F"/>
<stop offset="1" stop-color="#F5A200"/>
</linearGradient>
<linearGradient id="paint7_linear_3571_12003" x1="179.995" y1="69.6581" x2="172.231" y2="98.6359" gradientUnits="userSpaceOnUse">
<stop stop-color="#FFC52F"/>
<stop offset="1" stop-color="#F5A200"/>
</linearGradient>
</defs>
</svg>
