<svg width="93" height="49" viewBox="0 0 93 49" fill="none" xmlns="http://www.w3.org/2000/svg">
<path d="M15.3181 30.6769C10.9676 30.6769 7.34692 29.2455 4.45596 26.3826C1.59307 23.4916 0.161621 19.8429 0.161621 15.4363C0.161621 11.0296 1.59307 7.39489 4.45596 4.532C7.34692 1.64104 10.9676 0.195557 15.3181 0.195557C17.6196 0.195557 19.7528 0.644638 21.7175 1.5428C23.6822 2.44096 25.3242 3.71804 26.6434 5.37402C27.9906 7.03001 28.9168 8.95264 29.4221 11.1419H24.5383C23.8366 9.17718 22.6718 7.6475 21.0439 6.55286C19.416 5.43016 17.5074 4.86881 15.3181 4.86881C12.371 4.86881 9.92913 5.86521 7.99247 7.85801C6.05581 9.8508 5.08748 12.3909 5.08748 15.4784C5.08748 18.5377 6.05581 21.0638 7.99247 23.0566C9.92913 25.0213 12.371 26.0037 15.3181 26.0037C17.5635 26.0037 19.5142 25.4143 21.1702 24.2354C22.8262 23.0285 23.977 21.3866 24.6225 19.3096H29.5484C28.7905 22.7619 27.1205 25.5265 24.5383 27.6035C21.9561 29.6525 18.8827 30.6769 15.3181 30.6769Z" fill="black"/>
<path d="M41.1016 25.8774H51.5427V30.1717H32.3866V28.9508C36.5687 24.3758 39.5859 20.9656 41.4384 18.7202C43.3189 16.4467 44.5679 14.7205 45.1854 13.5417C45.8029 12.3629 46.1116 11.198 46.1116 10.0473C46.1116 9.23332 45.9292 8.51759 45.5643 7.90011C45.2275 7.28262 44.7363 6.80547 44.0908 6.46866C43.4733 6.10378 42.7435 5.92134 41.9015 5.92134C40.5823 5.92134 39.5158 6.31429 38.7018 7.10018C37.9159 7.85801 37.523 8.8544 37.523 10.0894V10.7209H32.976V10.0894C32.976 7.5633 33.79 5.5284 35.4179 3.98468C37.0458 2.4129 39.193 1.627 41.8594 1.627C44.4697 1.627 46.5888 2.4129 48.2167 3.98468C49.8727 5.55646 50.7007 7.57733 50.7007 10.0473C50.7007 11.3384 50.4621 12.5874 49.985 13.7943C49.5359 15.0012 48.6096 16.559 47.2063 18.4675C45.831 20.3481 43.7961 22.818 41.1016 25.8774Z" fill="black"/>
<path d="M70.4528 30.6769C66.1023 30.6769 62.4816 29.2455 59.5906 26.3826C56.7277 23.4916 55.2963 19.8429 55.2963 15.4363C55.2963 11.0296 56.7277 7.39489 59.5906 4.532C62.4816 1.64104 66.1023 0.195557 70.4528 0.195557C72.7543 0.195557 74.8875 0.644638 76.8522 1.5428C78.8169 2.44096 80.4589 3.71804 81.7781 5.37402C83.1253 7.03001 84.0515 8.95264 84.5567 11.1419H79.673C78.9713 9.17718 77.8065 7.6475 76.1786 6.55286C74.5507 5.43016 72.6421 4.86881 70.4528 4.86881C67.5057 4.86881 65.0638 5.86521 63.1272 7.85801C61.1905 9.8508 60.2222 12.3909 60.2222 15.4784C60.2222 18.5377 61.1905 21.0638 63.1272 23.0566C65.0638 25.0213 67.5057 26.0037 70.4528 26.0037C72.6982 26.0037 74.6489 25.4143 76.3049 24.2354C77.9609 23.0285 79.1116 21.3866 79.7572 19.3096H84.683C83.9252 22.7619 82.2552 25.5265 79.673 27.6035C77.0908 29.6525 74.0174 30.6769 70.4528 30.6769Z" fill="black"/>
<path d="M38.6804 36.5111H39.7214V38.2678H38.5285C37.473 38.2678 36.6489 38.5932 36.056 39.2438C35.4777 39.88 35.1885 40.7765 35.1885 41.9332V48.288H33.345V36.5761H34.6463L34.9499 38.3546C35.803 37.1256 37.0465 36.5111 38.6804 36.5111Z" fill="black"/>
<path d="M55.5571 42.4754C55.5571 42.6345 55.5427 42.8586 55.5137 43.1478H45.5153C45.6599 44.2322 46.1081 45.107 46.86 45.7721C47.6119 46.4228 48.5373 46.7481 49.6361 46.7481C50.4458 46.7481 51.1616 46.5746 51.7833 46.2276C52.4195 45.8661 52.9256 45.36 53.3015 44.7094H55.2318C54.7402 45.9239 54.0028 46.871 53.0196 47.5506C52.0363 48.2157 50.9085 48.5482 49.6361 48.5482C47.9444 48.5482 46.5274 47.9626 45.3852 46.7915C44.2429 45.6203 43.6718 44.1671 43.6718 42.4321C43.6718 40.6825 44.2429 39.2294 45.3852 38.0726C46.5274 36.9015 47.9444 36.3159 49.6361 36.3159C51.3857 36.3159 52.8099 36.9087 53.9088 38.0943C55.0077 39.28 55.5571 40.7403 55.5571 42.4754ZM49.6361 38.0726C48.9421 38.0726 48.3059 38.21 47.7275 38.4847C47.1636 38.7595 46.6937 39.1571 46.3178 39.6776C45.9419 40.1837 45.6888 40.7693 45.5587 41.4344H53.6919C53.5618 40.7548 53.3087 40.162 52.9328 39.6559C52.5569 39.1354 52.0869 38.745 51.523 38.4847C50.9591 38.21 50.3302 38.0726 49.6361 38.0726Z" fill="black"/>
<path d="M67.4172 36.3159C68.7908 36.3159 69.8825 36.7786 70.6922 37.7039C71.5164 38.6293 71.9284 39.8222 71.9284 41.2826V48.288H70.0849V41.7163C70.0849 40.9211 69.962 40.2487 69.7162 39.6993C69.4849 39.1498 69.1306 38.7305 68.6535 38.4414C68.1908 38.1522 67.6196 38.0076 66.9401 38.0076C65.9424 38.0076 65.1038 38.3835 64.4242 39.1354C63.7446 39.8728 63.4048 40.7909 63.4048 41.8898V48.288H61.5613V36.5761H62.8626L63.2313 38.4197C63.5205 37.9714 63.8747 37.5955 64.2941 37.2919C64.7134 36.9738 65.1905 36.7352 65.7255 36.5761C66.2605 36.4026 66.8244 36.3159 67.4172 36.3159Z" fill="black"/>
<path d="M83.4607 46.5746H84.7403V48.288H83.2221C81.9641 48.288 80.9737 47.9265 80.2508 47.2035C79.5278 46.4661 79.1663 45.4612 79.1663 44.1888V38.2462H77.1059V37.9208L80.7279 34.1036H81.0099V36.5761H84.6752V38.2462H81.0099V44.1238C81.0099 44.6587 81.1038 45.107 81.2918 45.4685C81.4798 45.8299 81.7545 46.1047 82.116 46.2926C82.4919 46.4806 82.9401 46.5746 83.4607 46.5746Z" fill="black"/>
<path d="M92.7639 27.2184C92.7639 29.3322 91.0503 31.0458 88.9365 31.0458C86.8227 31.0458 85.1091 29.3322 85.1091 27.2184C85.1091 25.1046 86.8227 23.391 88.9365 23.391C91.0503 23.391 92.7639 25.1046 92.7639 27.2184Z" fill="#41D65B"/>
</svg>
