<svg width="93" height="49" viewBox="0 0 93 49" fill="none" xmlns="http://www.w3.org/2000/svg">
<path d="M15.318 30.677C10.9676 30.677 7.34686 29.2455 4.4559 26.3826C1.59301 23.4916 0.16156 19.8429 0.16156 15.4363C0.16156 11.0296 1.59301 7.39489 4.4559 4.532C7.34686 1.64104 10.9676 0.195557 15.318 0.195557C17.6196 0.195557 19.7527 0.644638 21.7175 1.5428C23.6822 2.44096 25.3241 3.71804 26.6433 5.37402C27.9906 7.03001 28.9168 8.95264 29.422 11.1419H24.5382C23.8366 9.17718 22.6718 7.6475 21.0438 6.55286C19.4159 5.43016 17.5073 4.86881 15.318 4.86881C12.371 4.86881 9.92907 5.86521 7.99241 7.85801C6.05575 9.8508 5.08742 12.3909 5.08742 15.4784C5.08742 18.5377 6.05575 21.0638 7.99241 23.0566C9.92907 25.0213 12.371 26.0037 15.318 26.0037C17.5635 26.0037 19.5142 25.4143 21.1701 24.2354C22.8261 23.0285 23.9769 21.3866 24.6224 19.3096H29.5483C28.7905 22.7619 27.1205 25.5265 24.5382 27.6035C21.956 29.6525 18.8826 30.677 15.318 30.677Z" fill="white"/>
<path d="M41.1015 25.8774H51.5426V30.1717H32.3865V28.9508C36.5686 24.3758 39.5859 20.9656 41.4383 18.7202C43.3188 16.4467 44.5679 14.7205 45.1853 13.5417C45.8028 12.3629 46.1116 11.198 46.1116 10.0473C46.1116 9.23332 45.9291 8.51759 45.5643 7.90011C45.2274 7.28262 44.7363 6.80547 44.0907 6.46866C43.4732 6.10378 42.7435 5.92134 41.9014 5.92134C40.5823 5.92134 39.5157 6.31429 38.7017 7.10018C37.9158 7.85801 37.5229 8.8544 37.5229 10.0894V10.7209H32.9759V10.0894C32.9759 7.5633 33.7899 5.5284 35.4178 3.98468C37.0457 2.4129 39.1929 1.627 41.8593 1.627C44.4696 1.627 46.5887 2.4129 48.2166 3.98468C49.8726 5.55646 50.7006 7.57733 50.7006 10.0473C50.7006 11.3384 50.462 12.5874 49.9849 13.7943C49.5358 15.0012 48.6096 16.559 47.2062 18.4675C45.8309 20.3481 43.796 22.818 41.1015 25.8774Z" fill="white"/>
<path d="M70.4527 30.677C66.1023 30.677 62.4815 29.2455 59.5906 26.3826C56.7277 23.4916 55.2962 19.8429 55.2962 15.4363C55.2962 11.0296 56.7277 7.39489 59.5906 4.532C62.4815 1.64104 66.1023 0.195557 70.4527 0.195557C72.7543 0.195557 74.8874 0.644638 76.8521 1.5428C78.8169 2.44096 80.4588 3.71804 81.778 5.37402C83.1252 7.03001 84.0515 8.95264 84.5567 11.1419H79.6729C78.9712 9.17718 77.8064 7.6475 76.1785 6.55286C74.5506 5.43016 72.642 4.86881 70.4527 4.86881C67.5056 4.86881 65.0638 5.86521 63.1271 7.85801C61.1904 9.8508 60.2221 12.3909 60.2221 15.4784C60.2221 18.5377 61.1904 21.0638 63.1271 23.0566C65.0638 25.0213 67.5056 26.0037 70.4527 26.0037C72.6981 26.0037 74.6488 25.4143 76.3048 24.2354C77.9608 23.0285 79.1116 21.3866 79.7571 19.3096H84.683C83.9252 22.7619 82.2551 25.5265 79.6729 27.6035C77.0907 29.6525 74.0173 30.677 70.4527 30.677Z" fill="white"/>
<path d="M38.6805 36.5112H39.7215V38.268H38.5287C37.4732 38.268 36.649 38.5933 36.0562 39.244C35.4778 39.8802 35.1886 40.7766 35.1886 41.9333V48.2881H33.3451V36.5763H34.6464L34.95 38.3547C35.8031 37.1257 37.0466 36.5112 38.6805 36.5112Z" fill="white"/>
<path d="M55.5572 42.4756C55.5572 42.6346 55.5428 42.8587 55.5139 43.1479H45.5154C45.66 44.2323 46.1083 45.1071 46.8601 45.7722C47.612 46.4229 48.5374 46.7482 49.6363 46.7482C50.446 46.7482 51.1617 46.5747 51.7834 46.2277C52.4196 45.8662 52.9257 45.3601 53.3016 44.7095H55.2319C54.7403 45.924 54.0029 46.8711 53.0197 47.5507C52.0365 48.2158 50.9087 48.5484 49.6363 48.5484C47.9446 48.5484 46.5276 47.9628 45.3853 46.7916C44.243 45.6204 43.6719 44.1673 43.6719 42.4322C43.6719 40.6826 44.243 39.2295 45.3853 38.0728C46.5276 36.9016 47.9446 36.316 49.6363 36.316C51.3858 36.316 52.81 36.9088 53.9089 38.0945C55.0078 39.2801 55.5572 40.7405 55.5572 42.4756ZM49.6363 38.0728C48.9422 38.0728 48.306 38.2101 47.7277 38.4849C47.1638 38.7596 46.6938 39.1572 46.3179 39.6777C45.942 40.1838 45.6889 40.7694 45.5588 41.4345H53.692C53.5619 40.7549 53.3089 40.1621 52.9329 39.656C52.557 39.1355 52.0871 38.7451 51.5232 38.4849C50.9593 38.2101 50.3303 38.0728 49.6363 38.0728Z" fill="white"/>
<path d="M67.4173 36.316C68.7909 36.316 69.8826 36.7787 70.6923 37.7041C71.5165 38.6294 71.9286 39.8223 71.9286 41.2827V48.2881H70.085V41.7165C70.085 40.9212 69.9621 40.2489 69.7163 39.6994C69.485 39.15 69.1307 38.7307 68.6536 38.4415C68.1909 38.1523 67.6198 38.0077 66.9402 38.0077C65.9425 38.0077 65.1039 38.3836 64.4243 39.1355C63.7447 39.8729 63.4049 40.7911 63.4049 41.89V48.2881H61.5614V36.5763H62.8627L63.2314 38.4198C63.5206 37.9716 63.8749 37.5956 64.2942 37.292C64.7135 36.9739 65.1906 36.7353 65.7256 36.5763C66.2606 36.4027 66.8245 36.316 67.4173 36.316Z" fill="white"/>
<path d="M83.4608 46.5747H84.7404V48.2881H83.2222C81.9643 48.2881 80.9738 47.9266 80.2509 47.2037C79.5279 46.4662 79.1664 45.4613 79.1664 44.1889V38.2463H77.106V37.921L80.728 34.1038H81.01V36.5763H84.6753V38.2463H81.01V44.1239C81.01 44.6589 81.104 45.1071 81.2919 45.4686C81.4799 45.8301 81.7546 46.1048 82.1161 46.2927C82.492 46.4807 82.9403 46.5747 83.4608 46.5747Z" fill="white"/>
<path d="M92.7639 27.2183C92.7639 29.3321 91.0503 31.0457 88.9365 31.0457C86.8227 31.0457 85.1091 29.3321 85.1091 27.2183C85.1091 25.1045 86.8227 23.3909 88.9365 23.3909C91.0503 23.3909 92.7639 25.1045 92.7639 27.2183Z" fill="#41D65B"/>
</svg>
