<svg width="523" height="468" viewBox="0 0 523 468" fill="none" xmlns="http://www.w3.org/2000/svg">
<g filter="url(#filter0_d_3571_12528)">
<g clip-path="url(#clip0_3571_12528)">
<rect x="1.95428" y="2.41506" width="240.98" height="135.551" rx="15.0612" transform="matrix(0.999914 -0.0130896 -0.221378 0.975188 201.654 146.306)" fill="url(#paint0_linear_3571_12528)" stroke="#FFCC4A" stroke-width="5.02041"/>
<path opacity="0.2" d="M347.936 144.298L447.098 143L415.979 280.084L277.929 281.891L347.936 144.298Z" fill="url(#paint1_linear_3571_12528)"/>
<g clip-path="url(#clip1_3571_12528)">
<path d="M274.627 245.914L275.608 241.593C275.983 239.94 275.195 238.871 273.42 238.894C272.532 238.906 271.503 239.204 270.626 240.152C270.288 239.37 269.646 238.944 268.535 238.958C267.794 238.968 267.003 239.196 266.238 239.992L266.434 239.128L264.883 239.148L263.314 246.062L264.865 246.042L265.731 242.224C266.009 240.999 266.804 240.411 267.838 240.398C268.872 240.384 269.243 241.024 268.98 242.182L268.113 246L269.664 245.979L270.531 242.161C270.809 240.936 271.681 240.348 272.637 240.335C273.671 240.322 274.042 240.961 273.779 242.119L272.912 245.937L274.627 245.914ZM299.201 238.699L296.686 238.732L297.16 236.643L295.609 236.663L295.135 238.752L293.73 238.771L293.42 240.138L294.824 240.12L294.104 243.292C293.744 244.878 294.196 245.8 295.971 245.777C296.634 245.768 297.425 245.541 298.007 245.249L297.854 243.954C297.341 244.245 296.807 244.327 296.437 244.332C295.696 244.342 295.502 243.909 295.664 243.196L296.366 240.1L298.882 240.067L299.193 238.699L299.201 238.699ZM312.401 238.376C311.514 238.387 310.82 238.831 310.32 239.407L310.516 238.542L308.966 238.563L307.396 245.477L308.947 245.457L309.831 241.563C310.092 240.414 310.757 239.752 311.722 239.74C312.015 239.736 312.368 239.807 312.655 239.87L313.43 238.421C313.134 238.366 312.694 238.372 312.401 238.376ZM292.343 239.358C291.716 238.864 290.732 238.659 289.62 238.674C287.845 238.697 286.469 239.577 286.158 240.945C285.897 242.094 286.636 242.737 288.139 242.926L288.863 242.992C289.641 243.124 290.039 243.337 289.957 243.697C289.843 244.201 289.167 244.569 288.133 244.583C287.099 244.597 286.362 244.246 285.927 243.892L284.925 245.052C285.604 245.62 286.65 245.891 287.762 245.876C289.83 245.849 291.232 244.894 291.525 243.602C291.803 242.377 290.985 241.743 289.561 241.544L288.837 241.478C288.191 241.411 287.707 241.276 287.804 240.848C287.918 240.344 288.5 240.052 289.318 240.041C290.206 240.03 291.011 240.379 291.41 240.591L292.343 239.358ZM333.769 238.096C332.882 238.107 332.188 238.552 331.688 239.127L331.884 238.263L330.334 238.283L328.764 245.197L330.315 245.177L331.199 241.284C331.46 240.134 332.125 239.473 333.09 239.46C333.383 239.456 333.737 239.527 334.023 239.59L334.795 238.158C334.51 238.086 334.071 238.092 333.769 238.096ZM313.133 241.963C312.659 244.053 313.798 245.544 316.09 245.514C317.124 245.5 317.914 245.272 318.785 244.692L318.322 243.477C317.628 243.921 316.995 244.138 316.323 244.147C315.065 244.164 314.374 243.311 314.684 241.943C314.979 240.643 316.063 239.767 317.336 239.683C318 239.674 318.545 239.885 319.042 240.305L320.061 239.07C319.451 238.501 318.758 238.301 317.724 238.314C315.434 238.336 313.607 239.874 313.133 241.963ZM327.479 241.776L328.264 238.319L326.713 238.339L326.517 239.203C326.146 238.564 325.487 238.213 324.522 238.225C322.523 238.251 320.63 239.782 320.155 241.872C319.681 243.961 320.889 245.451 322.888 245.425C323.922 245.411 324.745 245.041 325.339 244.389L325.143 245.253L326.694 245.233L327.479 241.776ZM321.784 241.85C322.062 240.625 323.1 239.608 324.436 239.59C325.694 239.574 326.368 240.502 326.075 241.794C325.796 243.019 324.68 244.038 323.422 244.054C322.113 243.996 321.507 243.067 321.784 241.85ZM304.044 238.485C301.976 238.512 300.166 239.975 299.677 242.131C299.185 244.296 300.341 245.712 302.487 245.684C303.521 245.67 304.619 245.371 305.587 244.706L305.091 243.633C304.398 244.077 303.592 244.372 302.86 244.382C301.895 244.395 301.037 243.971 301.089 242.757L306.337 242.688C306.386 242.47 306.419 242.327 306.468 242.109C307.042 239.885 306.034 238.459 304.044 238.485ZM303.748 239.786C304.713 239.773 305.245 240.343 305.148 241.415L301.452 241.464C301.81 240.53 302.637 239.8 303.748 239.786ZM341.756 241.589L343.162 235.396L341.611 235.416L340.794 239.016C340.423 238.377 339.764 238.026 338.799 238.038C336.8 238.065 334.907 239.595 334.432 241.685C333.958 243.774 335.166 245.264 337.165 245.238C338.199 245.224 339.022 244.854 339.616 244.202L339.42 245.066L340.971 245.046L341.756 241.589ZM336.061 241.663C336.339 240.438 337.377 239.421 338.713 239.403C339.971 239.387 340.645 240.315 340.352 241.607C340.073 242.832 338.957 243.851 337.699 243.867C336.381 243.809 335.784 242.88 336.061 241.663ZM284.14 242.343L284.925 238.886L283.374 238.906L283.177 239.77C282.807 239.131 282.148 238.78 281.183 238.793C279.184 238.819 277.29 240.349 276.816 242.439C276.342 244.528 277.55 246.018 279.549 245.992C280.583 245.979 281.405 245.608 282 244.956L281.804 245.82L283.355 245.8L284.14 242.343ZM278.376 242.418C278.654 241.193 279.692 240.176 281.028 240.158C282.286 240.142 282.96 241.07 282.666 242.362C282.388 243.587 281.272 244.606 280.014 244.622C278.696 244.564 278.099 243.635 278.376 242.418Z" fill="black"/>
<path d="M327.174 185.978L303.876 186.283L294.622 227.046L317.92 226.741L327.174 185.978Z" fill="#FF5A00"/>
<path d="M300.8 206.644C302.68 198.362 308.347 190.959 315.559 186.13C311.829 182.732 306.608 180.717 300.396 180.798C285.68 180.991 271.14 192.743 267.886 207.075C264.633 221.407 273.908 232.848 288.624 232.655C294.836 232.574 301.006 230.41 306.306 226.893C301.225 222.292 298.92 214.926 300.8 206.644Z" fill="#EB001B"/>
<path d="M353.979 205.948C350.725 220.28 336.185 232.032 321.469 232.225C315.257 232.306 310.036 230.291 306.306 226.893C313.598 222.054 319.185 214.661 321.065 206.379C322.945 198.097 320.616 190.799 315.559 186.13C320.851 182.614 327.02 180.45 333.232 180.368C347.957 180.176 357.215 191.692 353.979 205.948Z" fill="#F79E1B"/>
</g>
</g>
</g>
<g filter="url(#filter1_d_3571_12528)">
<g clip-path="url(#clip2_3571_12528)">
<rect x="1.95428" y="2.41506" width="240.98" height="135.551" rx="15.0612" transform="matrix(0.999914 -0.0130896 -0.221378 0.975188 93.6543 256.086)" fill="url(#paint2_linear_3571_12528)" stroke="#FFCC4A" stroke-width="5.02041"/>
<path opacity="0.2" d="M239.936 254.078L339.098 252.78L307.979 389.863L169.93 391.671L239.936 254.078Z" fill="url(#paint3_linear_3571_12528)"/>
<g clip-path="url(#clip3_3571_12528)">
<path d="M191.08 338.774L182.703 338.884L195.188 306.898L203.565 306.788L191.08 338.774Z" fill="#00579F"/>
<path d="M228.516 307.24C227.01 306.616 224.552 305.937 221.311 305.979C213.038 306.088 206.226 310.51 204.78 316.724C203.671 321.309 207.332 323.8 210.156 325.287C213.043 326.806 213.913 327.811 213.597 329.203C213.078 331.342 210.269 332.362 207.857 332.393C204.512 332.437 202.836 331.952 200.382 330.798L199.395 330.303L196.596 337.483C198.361 338.339 201.803 339.074 205.554 339.059C214.343 338.944 221.037 334.591 222.608 327.968C223.466 324.334 221.86 321.58 217.55 319.368C214.951 317.946 213.38 316.985 213.72 315.49C214.062 314.132 215.861 312.721 219.169 312.678C221.908 312.574 223.762 313.192 225.132 313.818L225.812 314.147L228.516 307.24Z" fill="#00579F"/>
<path d="M235.148 326.924C236.254 325.081 240.52 317.95 240.52 317.95C240.47 318.018 241.633 316.073 242.316 314.88L242.277 317.622C242.277 317.622 242.129 325.241 242.111 326.833C240.802 326.85 236.803 326.902 235.148 326.924ZM250.168 306.178L243.688 306.263C241.69 306.289 240.041 306.886 238.708 308.969L219.621 338.4L228.411 338.285C228.411 338.285 230.752 334.327 231.256 333.474C232.22 333.462 240.771 333.35 242.011 333.334C241.997 334.451 241.924 338.108 241.924 338.108L249.68 338.007L250.168 306.178Z" fill="#00579F"/>
<path d="M182.952 307.058L169.807 328.93L169.913 324.528C169.552 319.454 166.052 313.983 161.368 311.301L162.546 339.114L171.405 338.998L191.81 306.942L182.952 307.058Z" fill="#00579F"/>
<path d="M167.13 307.265L153.652 307.442L153.368 308.089C163.28 310.6 168.794 316.893 169.912 324.529L170.312 309.899C170.293 307.866 168.942 307.309 167.13 307.265Z" fill="#FAA61A"/>
</g>
</g>
</g>
<g filter="url(#filter2_d_3571_12528)">
<circle cx="197" cy="128" r="63" fill="url(#paint4_radial_3571_12528)"/>
<circle cx="197" cy="128" r="53" stroke="white" stroke-opacity="0.1" stroke-width="5" stroke-linecap="round" stroke-linejoin="round" stroke-dasharray="10 10"/>
<path fill-rule="evenodd" clip-rule="evenodd" d="M197 91.3617C185.809 91.3617 175.802 96.5744 169.204 104.766C168.36 105.813 167.46 106.517 166.577 106.981C163.888 108.393 162.296 105.065 164.112 102.631C171.641 92.5348 183.565 86 197 86C210.435 86 222.359 92.5348 229.888 102.631C231.704 105.065 230.112 108.393 227.423 106.981C226.54 106.517 225.64 105.813 224.796 104.766C218.198 96.5744 208.191 91.3617 197 91.3617ZM169.204 151.234C175.802 159.426 185.809 164.638 197 164.638C208.191 164.638 218.198 159.426 224.796 151.234C225.64 150.187 226.54 149.483 227.423 149.019C230.112 147.607 231.704 150.935 229.888 153.369C222.359 163.465 210.435 170 197 170C183.565 170 171.641 163.465 164.112 153.369C162.296 150.935 163.888 147.607 166.577 149.019C167.46 149.483 168.36 150.187 169.204 151.234Z" fill="white" fill-opacity="0.2"/>
<path d="M169.957 143C165.664 143 162.091 141.591 159.238 138.773C156.413 135.928 155 132.337 155 128C155 123.663 156.413 120.086 159.238 117.268C162.091 114.423 165.664 113 169.957 113C172.228 113 174.333 113.442 176.272 114.326C178.211 115.21 179.831 116.467 181.133 118.097C181.826 118.946 182.405 119.866 182.872 120.857C183.546 122.287 182.366 123.773 180.785 123.773C179.748 123.773 178.852 123.104 178.339 122.201C177.659 121.004 176.749 120.022 175.607 119.257C174.001 118.152 172.117 117.599 169.957 117.599C167.049 117.599 164.639 118.58 162.728 120.541C160.817 122.503 159.861 125.003 159.861 128.041C159.861 131.052 160.817 133.539 162.728 135.5C164.639 137.434 167.049 138.401 169.957 138.401C172.173 138.401 174.098 137.82 175.732 136.66C176.892 135.817 177.801 134.758 178.458 133.483C178.951 132.528 179.871 131.812 180.945 131.812C182.514 131.812 183.694 133.278 183.071 134.717C182.17 136.798 180.831 138.551 179.056 139.975C176.508 141.992 173.475 143 169.957 143Z" fill="url(#paint5_linear_3571_12528)"/>
<path d="M195.644 138.788H203.894C205.057 138.788 206 139.731 206 140.894V141.813C206 142.469 205.469 143 204.813 143H191.246C189.01 143 188.023 140.184 189.77 138.788C192.509 135.785 194.579 133.444 195.978 131.767C197.843 129.537 199.082 127.844 199.694 126.687C200.307 125.531 200.613 124.388 200.613 123.26C200.613 122.461 200.432 121.759 200.07 121.153C199.736 120.548 199.249 120.08 198.609 119.749C197.996 119.391 197.272 119.212 196.437 119.212C195.129 119.212 194.071 119.598 193.264 120.369C192.846 120.767 192.574 121.215 192.399 121.698C191.973 122.868 191.085 123.92 189.839 123.92C188.594 123.92 187.549 122.902 187.761 121.675C188.043 120.04 188.702 118.537 190.007 117.313C191.621 115.771 193.751 115 196.396 115C198.985 115 201.086 115.771 202.701 117.313C204.344 118.854 205.165 120.837 205.165 123.26C205.165 124.526 204.928 125.751 204.455 126.935C204.009 128.119 203.091 129.647 201.699 131.519C200.335 133.364 198.316 135.787 195.644 138.788Z" fill="url(#paint6_linear_3571_12528)"/>
<path d="M224.441 143C220.296 143 216.846 141.591 214.092 138.773C211.364 135.928 210 132.337 210 128C210 123.663 211.364 120.086 214.092 117.268C216.846 114.423 220.296 113 224.441 113C226.634 113 228.667 113.442 230.539 114.326C232.411 115.21 233.975 116.467 235.232 118.097C235.924 118.976 236.5 119.931 236.959 120.963C237.577 122.351 236.437 123.773 234.917 123.773C233.905 123.773 233.032 123.115 232.548 122.227C231.89 121.018 231.006 120.028 229.897 119.257C228.346 118.152 226.527 117.599 224.441 117.599C221.633 117.599 219.307 118.58 217.461 120.541C215.616 122.503 214.693 125.003 214.693 128.041C214.693 131.052 215.616 133.539 217.461 135.5C219.307 137.434 221.633 138.401 224.441 138.401C226.581 138.401 228.439 137.82 230.017 136.66C231.146 135.81 232.029 134.741 232.665 133.453C233.128 132.514 234.023 131.812 235.07 131.812C236.579 131.812 237.718 133.215 237.147 134.611C236.276 136.739 234.969 138.527 233.226 139.975C230.766 141.992 227.838 143 224.441 143Z" fill="url(#paint7_linear_3571_12528)"/>
</g>
<defs>
<filter id="filter0_d_3571_12528" x="105" y="78" width="417.098" height="280.304" filterUnits="userSpaceOnUse" color-interpolation-filters="sRGB">
<feFlood flood-opacity="0" result="BackgroundImageFix"/>
<feColorMatrix in="SourceAlpha" type="matrix" values="0 0 0 0 0 0 0 0 0 0 0 0 0 0 0 0 0 0 127 0" result="hardAlpha"/>
<feOffset dx="5" dy="5"/>
<feGaussianBlur stdDeviation="35"/>
<feComposite in2="hardAlpha" operator="out"/>
<feColorMatrix type="matrix" values="0 0 0 0 1 0 0 0 0 0.72 0 0 0 0 0 0 0 0 0.6 0"/>
<feBlend mode="normal" in2="BackgroundImageFix" result="effect1_dropShadow_3571_12528"/>
<feBlend mode="normal" in="SourceGraphic" in2="effect1_dropShadow_3571_12528" result="shape"/>
</filter>
<filter id="filter1_d_3571_12528" x="-3" y="187.78" width="417.098" height="280.304" filterUnits="userSpaceOnUse" color-interpolation-filters="sRGB">
<feFlood flood-opacity="0" result="BackgroundImageFix"/>
<feColorMatrix in="SourceAlpha" type="matrix" values="0 0 0 0 0 0 0 0 0 0 0 0 0 0 0 0 0 0 127 0" result="hardAlpha"/>
<feOffset dx="5" dy="5"/>
<feGaussianBlur stdDeviation="35"/>
<feComposite in2="hardAlpha" operator="out"/>
<feColorMatrix type="matrix" values="0 0 0 0 1 0 0 0 0 0.72 0 0 0 0 0 0 0 0 0.6 0"/>
<feBlend mode="normal" in2="BackgroundImageFix" result="effect1_dropShadow_3571_12528"/>
<feBlend mode="normal" in="SourceGraphic" in2="effect1_dropShadow_3571_12528" result="shape"/>
</filter>
<filter id="filter2_d_3571_12528" x="68.9999" y="0" width="266" height="266" filterUnits="userSpaceOnUse" color-interpolation-filters="sRGB">
<feFlood flood-opacity="0" result="BackgroundImageFix"/>
<feColorMatrix in="SourceAlpha" type="matrix" values="0 0 0 0 0 0 0 0 0 0 0 0 0 0 0 0 0 0 127 0" result="hardAlpha"/>
<feOffset dx="5" dy="5"/>
<feGaussianBlur stdDeviation="35"/>
<feComposite in2="hardAlpha" operator="out"/>
<feColorMatrix type="matrix" values="0 0 0 0 0.184314 0 0 0 0 0.145098 0 0 0 0 0.0509804 0 0 0 0.3 0"/>
<feBlend mode="normal" in2="BackgroundImageFix" result="effect1_dropShadow_3571_12528"/>
<feBlend mode="normal" in="SourceGraphic" in2="effect1_dropShadow_3571_12528" result="shape"/>
</filter>
<linearGradient id="paint0_linear_3571_12528" x1="123" y1="0" x2="123" y2="140.571" gradientUnits="userSpaceOnUse">
<stop stop-color="#FFC329"/>
<stop offset="1" stop-color="#FFB038"/>
</linearGradient>
<linearGradient id="paint1_linear_3571_12528" x1="378.074" y1="143.904" x2="380.397" y2="250.904" gradientUnits="userSpaceOnUse">
<stop stop-color="white" stop-opacity="0"/>
<stop offset="1" stop-color="white"/>
</linearGradient>
<linearGradient id="paint2_linear_3571_12528" x1="123" y1="0" x2="123" y2="140.571" gradientUnits="userSpaceOnUse">
<stop stop-color="#FFC329"/>
<stop offset="1" stop-color="#FFB038"/>
</linearGradient>
<linearGradient id="paint3_linear_3571_12528" x1="270.074" y1="253.683" x2="272.397" y2="360.684" gradientUnits="userSpaceOnUse">
<stop stop-color="white" stop-opacity="0"/>
<stop offset="1" stop-color="white"/>
</linearGradient>
<radialGradient id="paint4_radial_3571_12528" cx="0" cy="0" r="1" gradientUnits="userSpaceOnUse" gradientTransform="translate(221.75 102.687) rotate(125.261) scale(108.155)">
<stop stop-color="#2D2D2D"/>
<stop offset="1"/>
</radialGradient>
<linearGradient id="paint5_linear_3571_12528" x1="169.5" y1="113" x2="169.5" y2="143" gradientUnits="userSpaceOnUse">
<stop stop-color="#FFC52F"/>
<stop offset="1" stop-color="#F5A200"/>
</linearGradient>
<linearGradient id="paint6_linear_3571_12528" x1="196.5" y1="115" x2="196.5" y2="143" gradientUnits="userSpaceOnUse">
<stop stop-color="#FFC52F"/>
<stop offset="1" stop-color="#F5A200"/>
</linearGradient>
<linearGradient id="paint7_linear_3571_12528" x1="224" y1="113" x2="224" y2="143" gradientUnits="userSpaceOnUse">
<stop stop-color="#FFC52F"/>
<stop offset="1" stop-color="#F5A200"/>
</linearGradient>
<clipPath id="clip0_3571_12528">
<rect width="246" height="140.571" rx="17.5714" transform="matrix(0.999914 -0.0130896 -0.221378 0.975188 201.119 146.22)" fill="white"/>
</clipPath>
<clipPath id="clip1_3571_12528">
<rect width="86.1" height="66.7714" fill="white" transform="matrix(0.999914 -0.0130896 -0.221378 0.975188 273.772 181.147)"/>
</clipPath>
<clipPath id="clip2_3571_12528">
<rect width="246" height="140.571" rx="17.5714" transform="matrix(0.999914 -0.0130896 -0.221378 0.975188 93.1195 256)" fill="white"/>
</clipPath>
<clipPath id="clip3_3571_12528">
<rect width="103.42" height="33.8105" fill="white" transform="matrix(0.999914 -0.0130896 -0.221378 0.975188 153.645 306.865)"/>
</clipPath>
</defs>
</svg>
