<svg width="386" height="329" viewBox="0 0 386 329" fill="none" xmlns="http://www.w3.org/2000/svg">
<g clip-path="url(#clip0_1_44)">
<rect x="1.95428" y="2.41506" width="240.98" height="135.551" rx="15.0612" transform="matrix(0.999914 -0.0130896 -0.221378 0.975188 139.654 81.3056)" fill="url(#paint0_linear_1_44)" stroke="#FFCC4A" stroke-width="5.02041"/>
<path opacity="0.2" d="M285.936 79.2982L385.098 78.0001L353.979 215.084L215.929 216.891L285.936 79.2982Z" fill="url(#paint1_linear_1_44)"/>
<g clip-path="url(#clip1_1_44)">
<path d="M212.627 180.914L213.608 176.593C213.983 174.94 213.195 173.871 211.42 173.894C210.532 173.906 209.503 174.204 208.626 175.152C208.288 174.37 207.646 173.944 206.535 173.958C205.794 173.968 205.003 174.196 204.238 174.992L204.434 174.128L202.883 174.148L201.314 181.062L202.865 181.042L203.731 177.224C204.01 175.999 204.804 175.411 205.838 175.398C206.872 175.384 207.243 176.024 206.98 177.182L206.113 181L207.664 180.979L208.531 177.161C208.809 175.936 209.681 175.348 210.638 175.335C211.671 175.321 212.042 175.961 211.779 177.119L210.912 180.937L212.627 180.914ZM237.202 173.699L234.686 173.732L235.16 171.642L233.609 171.663L233.135 173.752L231.73 173.771L231.42 175.138L232.824 175.12L232.104 178.292C231.744 179.878 232.196 180.8 233.971 180.777C234.635 180.768 235.425 180.541 236.007 180.248L235.854 178.954C235.341 179.245 234.807 179.327 234.437 179.332C233.696 179.342 233.502 178.909 233.664 178.196L234.367 175.1L236.882 175.067L237.193 173.699L237.202 173.699ZM250.401 173.376C249.514 173.387 248.82 173.831 248.32 174.407L248.516 173.542L246.966 173.563L245.396 180.477L246.947 180.457L247.831 176.563C248.092 175.414 248.757 174.752 249.722 174.74C250.015 174.736 250.369 174.807 250.655 174.87L251.431 173.421C251.134 173.366 250.694 173.372 250.401 173.376ZM230.343 174.358C229.716 173.864 228.732 173.659 227.62 173.674C225.845 173.697 224.469 174.577 224.158 175.944C223.897 177.094 224.636 177.737 226.139 177.926L226.863 177.992C227.641 178.124 228.039 178.337 227.957 178.697C227.843 179.201 227.167 179.569 226.133 179.583C225.099 179.597 224.362 179.246 223.927 178.892L222.925 180.052C223.604 180.62 224.65 180.891 225.762 180.876C227.83 180.849 229.232 179.894 229.525 178.602C229.804 177.376 228.985 176.743 227.561 176.544L226.838 176.478C226.191 176.411 225.707 176.276 225.804 175.848C225.918 175.344 226.5 175.052 227.318 175.041C228.206 175.03 229.011 175.379 229.41 175.591L230.343 174.358ZM271.769 173.096C270.882 173.107 270.188 173.552 269.688 174.127L269.885 173.263L268.334 173.283L266.764 180.197L268.315 180.177L269.199 176.283C269.46 175.134 270.125 174.473 271.09 174.46C271.383 174.456 271.737 174.527 272.023 174.59L272.795 173.158C272.51 173.086 272.071 173.092 271.769 173.096ZM251.133 176.963C250.659 179.053 251.798 180.544 254.09 180.514C255.124 180.5 255.914 180.272 256.785 179.692L256.322 178.477C255.628 178.921 254.995 179.138 254.323 179.147C253.065 179.163 252.374 178.311 252.684 176.943C252.979 175.642 254.063 174.767 255.336 174.683C256 174.674 256.545 174.885 257.042 175.305L258.061 174.07C257.452 173.501 256.758 173.301 255.724 173.314C253.434 173.336 251.607 174.874 251.133 176.963ZM265.479 176.776L266.264 173.318L264.713 173.339L264.517 174.203C264.146 173.564 263.487 173.213 262.522 173.225C260.523 173.251 258.63 174.782 258.155 176.871C257.681 178.961 258.889 180.451 260.888 180.425C261.922 180.411 262.745 180.041 263.34 179.389L263.143 180.253L264.694 180.233L265.479 176.776ZM259.784 176.85C260.062 175.625 261.1 174.608 262.436 174.59C263.694 174.574 264.368 175.502 264.075 176.794C263.796 178.019 262.68 179.038 261.422 179.054C260.113 178.996 259.508 178.067 259.784 176.85ZM242.044 173.485C239.976 173.512 238.166 174.975 237.677 177.131C237.185 179.296 238.341 180.712 240.487 180.683C241.521 180.67 242.619 180.371 243.587 179.706L243.091 178.633C242.398 179.077 241.592 179.372 240.86 179.382C239.895 179.394 239.037 178.971 239.089 177.757L244.337 177.688C244.386 177.47 244.419 177.327 244.468 177.109C245.042 174.885 244.034 173.459 242.044 173.485ZM241.748 174.786C242.713 174.773 243.245 175.343 243.148 176.415L239.452 176.464C239.81 175.53 240.637 174.8 241.748 174.786ZM279.756 176.589L281.162 170.396L279.611 170.416L278.794 174.016C278.423 173.377 277.764 173.026 276.799 173.038C274.8 173.064 272.907 174.595 272.432 176.685C271.958 178.774 273.166 180.264 275.165 180.238C276.199 180.224 277.022 179.854 277.616 179.202L277.42 180.066L278.971 180.046L279.756 176.589ZM274.061 176.663C274.339 175.438 275.377 174.421 276.713 174.403C277.971 174.387 278.645 175.315 278.352 176.607C278.073 177.832 276.957 178.851 275.699 178.867C274.381 178.809 273.785 177.88 274.061 176.663ZM222.14 177.343L222.925 173.886L221.374 173.906L221.177 174.77C220.807 174.131 220.148 173.78 219.183 173.793C217.184 173.819 215.29 175.349 214.816 177.439C214.342 179.528 215.55 181.018 217.549 180.992C218.583 180.979 219.406 180.608 220 179.956L219.804 180.82L221.355 180.8L222.14 177.343ZM216.376 177.418C216.654 176.193 217.692 175.176 219.028 175.158C220.286 175.142 220.96 176.07 220.666 177.362C220.388 178.587 219.272 179.606 218.014 179.622C216.696 179.564 216.099 178.635 216.376 177.418Z" fill="black"/>
<path d="M265.174 120.977L241.876 121.282L232.622 162.046L255.92 161.741L265.174 120.977Z" fill="#FF5A00"/>
<path d="M238.8 141.644C240.68 133.362 246.347 125.959 253.559 121.13C249.829 117.731 244.608 115.717 238.396 115.798C223.68 115.991 209.14 127.743 205.886 142.075C202.633 156.407 211.908 167.847 226.624 167.655C232.836 167.573 239.006 165.41 244.306 161.893C239.225 157.292 236.92 149.926 238.8 141.644Z" fill="#EB001B"/>
<path d="M291.979 140.948C288.725 155.28 274.185 167.032 259.469 167.225C253.257 167.306 248.036 165.291 244.306 161.893C251.598 157.054 257.185 149.661 259.065 141.379C260.945 133.097 258.616 125.799 253.559 121.13C258.851 117.613 265.02 115.449 271.232 115.368C285.957 115.175 295.215 126.691 291.979 140.948Z" fill="#F79E1B"/>
</g>
</g>
<g clip-path="url(#clip2_1_44)">
<rect x="1.95428" y="2.41506" width="240.98" height="135.551" rx="15.0612" transform="matrix(0.999914 -0.0130896 -0.221378 0.975188 31.6543 191.086)" fill="url(#paint2_linear_1_44)" stroke="#FFCC4A" stroke-width="5.02041"/>
<path opacity="0.2" d="M177.936 189.078L277.098 187.78L245.979 324.864L107.93 326.671L177.936 189.078Z" fill="url(#paint3_linear_1_44)"/>
<g clip-path="url(#clip3_1_44)">
<path d="M129.08 273.774L120.703 273.884L133.188 241.898L141.565 241.788L129.08 273.774Z" fill="#00579F"/>
<path d="M166.516 242.24C165.01 241.615 162.552 240.937 159.311 240.979C151.038 241.087 144.226 245.51 142.78 251.724C141.671 256.309 145.332 258.799 148.156 260.286C151.043 261.806 151.913 262.811 151.597 264.203C151.078 266.342 148.269 267.361 145.857 267.393C142.512 267.437 140.836 266.952 138.382 265.798L137.395 265.303L134.596 272.483C136.361 273.339 139.803 274.074 143.553 274.059C152.343 273.944 159.037 269.59 160.608 262.968C161.466 259.334 159.86 256.579 155.55 254.368C152.951 252.946 151.38 251.984 151.72 250.49C152.062 249.131 153.861 247.721 157.169 247.677C159.908 247.573 161.762 248.192 163.131 248.818L163.812 249.147L166.516 242.24V242.24Z" fill="#00579F"/>
<path d="M173.148 261.924C174.254 260.081 178.52 252.95 178.52 252.95C178.47 253.018 179.632 251.073 180.316 249.88L180.277 252.622C180.277 252.622 180.129 260.241 180.111 261.833C178.802 261.85 174.803 261.902 173.148 261.924ZM188.167 241.178L181.688 241.263C179.69 241.289 178.041 241.886 176.708 243.969L157.621 273.4L166.411 273.285C166.411 273.285 168.752 269.327 169.256 268.474C170.22 268.462 178.771 268.35 180.011 268.333C179.997 269.451 179.924 273.108 179.924 273.108L187.68 273.007L188.167 241.178V241.178Z" fill="#00579F"/>
<path d="M120.952 242.058L107.807 263.93L107.912 259.528C107.552 254.454 104.051 248.983 99.3676 246.301L100.546 274.114L109.404 273.998L129.81 241.942L120.952 242.058V242.058Z" fill="#00579F"/>
<path d="M105.13 242.265L91.6518 242.442L91.3675 243.088C101.28 245.599 106.793 251.893 107.912 259.529L108.312 244.899C108.293 242.866 106.941 242.309 105.13 242.265Z" fill="#FAA61A"/>
</g>
</g>
<circle cx="135" cy="63" r="63" fill="url(#paint4_radial_1_44)"/>
<circle cx="135" cy="63" r="53" stroke="white" stroke-opacity="0.1" stroke-width="5" stroke-linecap="round" stroke-linejoin="round" stroke-dasharray="10 10"/>
<path fill-rule="evenodd" clip-rule="evenodd" d="M135 26.3617C123.809 26.3617 113.802 31.5744 107.204 39.766C106.36 40.8132 105.46 41.517 104.577 41.9809C101.888 43.393 100.296 40.0654 102.112 37.6309C109.641 27.5348 121.565 21 135 21C148.435 21 160.359 27.5348 167.888 37.6309C169.704 40.0654 168.112 43.393 165.423 41.9809C164.54 41.517 163.64 40.8132 162.796 39.766C156.198 31.5744 146.191 26.3617 135 26.3617ZM107.204 86.234C113.802 94.4256 123.809 99.6383 135 99.6383C146.191 99.6383 156.198 94.4256 162.796 86.234C163.64 85.1868 164.54 84.483 165.423 84.0191C168.112 82.607 169.704 85.9346 167.888 88.3691C160.359 98.4652 148.435 105 135 105C121.565 105 109.641 98.4652 102.112 88.3691C100.296 85.9346 101.888 82.607 104.577 84.0191C105.46 84.483 106.36 85.1868 107.204 86.234Z" fill="white" fill-opacity="0.2"/>
<path d="M107.957 78C103.664 78 100.091 76.5912 97.2378 73.7735C94.4126 70.9282 93 67.337 93 63C93 58.663 94.4126 55.0856 97.2378 52.268C100.091 49.4227 103.664 48 107.957 48C110.228 48 112.333 48.442 114.272 49.326C116.211 50.2099 117.831 51.4669 119.133 53.0967C119.826 53.9456 120.405 54.8657 120.873 55.857C121.546 57.2866 120.366 58.7735 118.785 58.7735V58.7735C117.748 58.7735 116.852 58.1036 116.339 57.2015C115.659 56.0038 114.749 55.0223 113.607 54.2569C112.001 53.1519 110.117 52.5994 107.957 52.5994C105.049 52.5994 102.639 53.5801 100.728 55.5414C98.8166 57.5028 97.861 60.0028 97.861 63.0414C97.861 66.0525 98.8166 68.5387 100.728 70.5C102.639 72.4337 105.049 73.4006 107.957 73.4006C110.173 73.4006 112.098 72.8204 113.732 71.6602C114.892 70.817 115.801 69.7581 116.459 68.4834C116.951 67.5283 117.871 66.8122 118.946 66.8122V66.8122C120.514 66.8122 121.695 68.2777 121.071 69.7172C120.17 71.7983 118.831 73.551 117.056 74.9751C114.508 76.9917 111.475 78 107.957 78Z" fill="url(#paint5_linear_1_44)"/>
<path d="M133.644 73.7876H141.894C143.057 73.7876 144 74.7306 144 75.8938V76.8131C144 77.4686 143.469 78 142.813 78H129.246C127.01 78 126.023 75.1838 127.77 73.7876V73.7876C130.509 70.7847 132.579 68.4444 133.978 66.767C135.843 64.5369 137.082 62.8437 137.695 61.6873C138.307 60.531 138.613 59.3884 138.613 58.2596C138.613 57.4612 138.432 56.7591 138.07 56.1534C137.736 55.5477 137.249 55.0796 136.609 54.7493C135.996 54.3913 135.273 54.2124 134.437 54.2124C133.129 54.2124 132.071 54.5978 131.264 55.3687C130.846 55.7667 130.574 56.2154 130.399 56.6977C129.973 57.8681 129.085 58.9204 127.84 58.9204V58.9204C126.594 58.9204 125.549 57.9022 125.761 56.675C126.043 55.0398 126.702 53.5365 128.007 52.3127C129.621 50.7709 131.751 50 134.396 50C136.985 50 139.086 50.7709 140.701 52.3127C142.344 53.8545 143.165 55.8368 143.165 58.2596C143.165 59.5261 142.928 60.7512 142.455 61.9351C142.01 63.119 141.091 64.647 139.699 66.5192C138.335 68.3638 136.316 70.7866 133.644 73.7876Z" fill="url(#paint6_linear_1_44)"/>
<path d="M162.441 78C158.296 78 154.846 76.5912 152.092 73.7735C149.364 70.9282 148 67.337 148 63C148 58.663 149.364 55.0856 152.092 52.268C154.846 49.4227 158.296 48 162.441 48C164.634 48 166.667 48.442 168.539 49.326C170.411 50.2099 171.975 51.4669 173.232 53.0967C173.924 53.9757 174.5 54.9311 174.959 55.9628C175.577 57.3512 174.437 58.7735 172.917 58.7735V58.7735C171.905 58.7735 171.032 58.1154 170.548 57.2266C169.89 56.0175 169.007 55.0277 167.897 54.2569C166.346 53.1519 164.527 52.5994 162.441 52.5994C159.633 52.5994 157.307 53.5801 155.461 55.5414C153.616 57.5028 152.693 60.0028 152.693 63.0414C152.693 66.0525 153.616 68.5387 155.461 70.5C157.307 72.4337 159.633 73.4006 162.441 73.4006C164.581 73.4006 166.439 72.8204 168.017 71.6602C169.146 70.8103 170.029 69.7412 170.665 68.4528C171.128 67.514 172.023 66.8122 173.07 66.8122V66.8122C174.579 66.8122 175.718 68.2146 175.147 69.6111C174.276 71.7388 172.97 73.5268 171.226 74.9751C168.766 76.9917 165.838 78 162.441 78Z" fill="url(#paint7_linear_1_44)"/>
<defs>
<linearGradient id="paint0_linear_1_44" x1="123" y1="0" x2="123" y2="140.571" gradientUnits="userSpaceOnUse">
<stop stop-color="#FFC329"/>
<stop offset="1" stop-color="#FFB038"/>
</linearGradient>
<linearGradient id="paint1_linear_1_44" x1="316.074" y1="78.9036" x2="318.397" y2="185.904" gradientUnits="userSpaceOnUse">
<stop stop-color="white" stop-opacity="0"/>
<stop offset="1" stop-color="white"/>
</linearGradient>
<linearGradient id="paint2_linear_1_44" x1="123" y1="0" x2="123" y2="140.571" gradientUnits="userSpaceOnUse">
<stop stop-color="#FFC329"/>
<stop offset="1" stop-color="#FFB038"/>
</linearGradient>
<linearGradient id="paint3_linear_1_44" x1="208.074" y1="188.684" x2="210.397" y2="295.684" gradientUnits="userSpaceOnUse">
<stop stop-color="white" stop-opacity="0"/>
<stop offset="1" stop-color="white"/>
</linearGradient>
<radialGradient id="paint4_radial_1_44" cx="0" cy="0" r="1" gradientUnits="userSpaceOnUse" gradientTransform="translate(159.75 37.6875) rotate(125.261) scale(108.155)">
<stop stop-color="#2D2D2D"/>
<stop offset="1"/>
</radialGradient>
<linearGradient id="paint5_linear_1_44" x1="107.5" y1="48" x2="107.5" y2="78" gradientUnits="userSpaceOnUse">
<stop stop-color="#FFC52F"/>
<stop offset="1" stop-color="#F5A200"/>
</linearGradient>
<linearGradient id="paint6_linear_1_44" x1="134.5" y1="50" x2="134.5" y2="78" gradientUnits="userSpaceOnUse">
<stop stop-color="#FFC52F"/>
<stop offset="1" stop-color="#F5A200"/>
</linearGradient>
<linearGradient id="paint7_linear_1_44" x1="162" y1="48" x2="162" y2="78" gradientUnits="userSpaceOnUse">
<stop stop-color="#FFC52F"/>
<stop offset="1" stop-color="#F5A200"/>
</linearGradient>
<clipPath id="clip0_1_44">
<rect width="246" height="140.571" rx="17.5714" transform="matrix(0.999914 -0.0130896 -0.221378 0.975188 139.119 81.2201)" fill="white"/>
</clipPath>
<clipPath id="clip1_1_44">
<rect width="86.1" height="66.7714" fill="white" transform="matrix(0.999914 -0.0130896 -0.221378 0.975188 211.772 116.147)"/>
</clipPath>
<clipPath id="clip2_1_44">
<rect width="246" height="140.571" rx="17.5714" transform="matrix(0.999914 -0.0130896 -0.221378 0.975188 31.1195 191)" fill="white"/>
</clipPath>
<clipPath id="clip3_1_44">
<rect width="103.42" height="33.8105" fill="white" transform="matrix(0.999914 -0.0130896 -0.221378 0.975188 91.6454 241.865)"/>
</clipPath>
</defs>
</svg>
